name H:\OpenSim\Running\SimulationDataAndSetupFiles\ExpData\grf_run.mot
datacolumns 19
datarows 20
range 0.41000000 0.47333333
endheader

                time	   R_ground_force_vx	   R_ground_force_vy	   R_ground_force_vz	   R_ground_force_px	   R_ground_force_py	   R_ground_force_pz	   L_ground_force_vx	   L_ground_force_vy	   L_ground_force_vz	   L_ground_force_px	   L_ground_force_py	   L_ground_force_pz	   R_ground_torque_x	   R_ground_torque_y	   R_ground_torque_z	   L_ground_torque_x	   L_ground_torque_y	   L_ground_torque_z	
          0.41000000	          0.00000000	          0.00000000	          0.00000000	          0.00000000	          0.00000000	          0.00000000	        -20.67915957	         98.71938936	          3.18653220	          1.47970529	          0.00000000	         -0.23063812	          0.00000000	          0.00000000	          0.00000000	          0.00000000	         -0.15598285	          0.00000000	
          0.41333333	          0.00000000	          0.00000000	          0.00000000	          0.00000000	          0.00000000	          0.00000000	        -37.52787902	        153.50725438	          6.31214884	          1.47031558	          0.00000000	         -0.24141766	          0.00000000	          0.00000000	          0.00000000	          0.00000000	         -0.17713812	          0.00000000	
          0.41666667	          0.00000000	          0.00000000	          0.00000000	          0.00000000	          0.00000000	          0.00000000	        -59.90930959	        219.46024159	         10.75252795	          1.46224534	          0.00000000	         -0.25106426	          0.00000000	          0.00000000	          0.00000000	          0.00000000	         -0.16477586	          0.00000000	
          0.42000000	          0.00000000	          0.00000000	          0.00000000	          0.00000000	          0.00000000	          0.00000000	        -85.03592292	        293.84936578	         15.96808553	          1.45627636	          0.00000000	         -0.25810476	          0.00000000	          0.00000000	          0.00000000	          0.00000000	         -0.12958158	          0.00000000	
          0.42333333	          0.00000000	          0.00000000	          0.00000000	          0.00000000	          0.00000000	          0.00000000	       -108.46762133	        375.03148987	         20.80564344	          1.45205957	          0.00000000	         -0.26195825	          0.00000000	          0.00000000	          0.00000000	          0.00000000	         -0.11644204	          0.00000000	
          0.42666667	          0.00000000	          0.00000000	          0.00000000	          0.00000000	          0.00000000	          0.00000000	       -125.93698150	        463.87652079	         23.72191677	          1.44837991	          0.00000000	         -0.26291476	          0.00000000	          0.00000000	          0.00000000	          0.00000000	         -0.20831283	          0.00000000	
          0.43000000	          0.00000000	          0.00000000	          0.00000000	          0.00000000	          0.00000000	          0.00000000	       -135.45475331	        564.61920385	         23.14458498	          1.44385165	          0.00000000	         -0.26168936	          0.00000000	          0.00000000	          0.00000000	          0.00000000	         -0.51641649	          0.00000000	
          0.43333333	          0.00000000	          0.00000000	          0.00000000	          0.00000000	          0.00000000	          0.00000000	       -138.29387263	        683.84428204	         17.75861294	          1.43754939	          0.00000000	         -0.25896809	          0.00000000	          0.00000000	          0.00000000	          0.00000000	         -1.15935613	          0.00000000	
          0.43666667	          0.00000000	          0.00000000	          0.00000000	          0.00000000	          0.00000000	          0.00000000	       -138.08596958	        826.66022110	          6.65560975	          1.42930696	          0.00000000	         -0.25523155	          0.00000000	          0.00000000	          0.00000000	          0.00000000	         -2.22784549	          0.00000000	
          0.44000000	          0.00000000	          0.00000000	          0.00000000	          0.00000000	          0.00000000	          0.00000000	       -138.63638874	        990.30886658	        -10.41033978	          1.41972176	          0.00000000	         -0.25085461	          0.00000000	          0.00000000	          0.00000000	          0.00000000	         -3.73372770	          0.00000000	
          0.44333333	          0.00000000	          0.00000000	          0.00000000	          0.00000000	          0.00000000	          0.00000000	       -142.10514697	       1159.44689653	        -32.37302469	          1.41000233	          0.00000000	         -0.24624459	          0.00000000	          0.00000000	          0.00000000	          0.00000000	         -5.56830545	          0.00000000	
          0.44666667	          0.00000000	          0.00000000	          0.00000000	          0.00000000	          0.00000000	          0.00000000	       -148.68180035	       1308.70047362	        -56.17383248	          1.40157781	          0.00000000	         -0.24193107	          0.00000000	          0.00000000	          0.00000000	          0.00000000	         -7.50545536	          0.00000000	
          0.45000000	          0.00000000	          0.00000000	          0.00000000	          0.00000000	          0.00000000	          0.00000000	       -157.57998074	       1413.16427735	        -76.87111081	          1.39564518	          0.00000000	         -0.23845982	          0.00000000	          0.00000000	          0.00000000	          0.00000000	         -9.26759081	          0.00000000	
          0.45333333	          0.00000000	          0.00000000	          0.00000000	          0.00000000	          0.00000000	          0.00000000	       -168.15674119	       1460.92074497	        -89.11635673	          1.39274925	          0.00000000	         -0.23621923	          0.00000000	          0.00000000	          0.00000000	          0.00000000	        -10.63219606	          0.00000000	
          0.45666667	          0.00000000	          0.00000000	          0.00000000	          0.00000000	          0.00000000	          0.00000000	       -180.09474593	       1458.56106303	        -89.47724864	          1.39267809	          0.00000000	         -0.23530292	          0.00000000	          0.00000000	          0.00000000	          0.00000000	        -11.50787046	          0.00000000	
          0.46000000	          0.00000000	          0.00000000	          0.00000000	          0.00000000	          0.00000000	          0.00000000	       -192.78397121	       1425.78774684	        -78.09140358	          1.39468724	          0.00000000	         -0.23551122	          0.00000000	          0.00000000	          0.00000000	          0.00000000	        -11.93813676	          0.00000000	
          0.46333333	          0.00000000	          0.00000000	          0.00000000	          0.00000000	          0.00000000	          0.00000000	       -204.82793351	       1384.73123518	        -58.46172461	          1.39788072	          0.00000000	         -0.23646983	          0.00000000	          0.00000000	          0.00000000	          0.00000000	        -12.04089759	          0.00000000	
          0.46666667	          0.00000000	          0.00000000	          0.00000000	          0.00000000	          0.00000000	          0.00000000	       -214.28220569	       1351.44269233	        -35.56646938	          1.40151590	          0.00000000	         -0.23778585	          0.00000000	          0.00000000	          0.00000000	          0.00000000	        -11.93508610	          0.00000000	
          0.47000000	          0.00000000	          0.00000000	          0.00000000	          0.00000000	          0.00000000	          0.00000000	       -219.49571713	       1333.58604940	        -13.58917445	          1.40511530	          0.00000000	         -0.23915933	          0.00000000	          0.00000000	          0.00000000	          0.00000000	        -11.70310825	          0.00000000	
          0.47333333	          0.00000000	          0.00000000	          0.00000000	          0.00000000	          0.00000000	          0.00000000	       -219.85986393	       1332.60136222	          5.33843366	          1.40844119	          0.00000000	         -0.24041999	          0.00000000	          0.00000000	          0.00000000	          0.00000000	        -11.39271947	          0.00000000	
